<svg width="94" height="67" viewBox="0 0 94 67" fill="none" xmlns="http://www.w3.org/2000/svg">
<g clip-path="url(#clip0)">
<path d="M84.1763 36.9278L67.3584 53.4508C65.571 55.2068 65.571 58.0539 67.3584 59.81L69.0101 61.4327C70.7975 63.1887 73.6954 63.1887 75.4828 61.4327L92.3007 44.9097C94.0881 43.1536 94.0881 40.3065 92.3007 38.5505L90.649 36.9278C88.8616 35.1717 85.9637 35.1717 84.1763 36.9278Z" fill="#5151E0"/>
<path d="M89.4231 33.6475H37.6252C35.0975 33.6475 33.0483 35.6607 33.0483 38.1441V41.1212C33.0483 43.6046 35.0975 45.6178 37.6252 45.6178H89.4231C91.9508 45.6178 94 43.6046 94 41.1212V38.1441C94 35.6607 91.9508 33.6475 89.4231 33.6475Z" fill="#5151E0"/>
<path d="M25.2107 25.8161L42.0285 9.29313C43.8159 7.53708 43.8159 4.68997 42.0285 2.93392L40.3769 1.31122C38.5895 -0.444828 35.6916 -0.444829 33.9042 1.31122L17.0863 17.8342C15.2989 19.5903 15.2989 22.4374 17.0863 24.1934L18.7379 25.8161C20.5253 27.5722 23.4233 27.5722 25.2107 25.8161Z" fill="#5151E0"/>
<path d="M19.9649 29.0886L71.7627 29.0886C74.2905 29.0886 76.3396 27.0754 76.3396 24.592V21.6149C76.3396 19.1315 74.2905 17.1182 71.7627 17.1182L19.9649 17.1182C17.4371 17.1182 15.388 19.1315 15.388 21.6149V24.592C15.388 27.0754 17.4371 29.0886 19.9649 29.0886Z" fill="#5151E0"/>
<path d="M15.7824 36.4074C14.4277 36.4074 13.1034 36.802 11.977 37.5415C10.8506 38.2809 9.97269 39.3319 9.45426 40.5616C8.93583 41.7912 8.80019 43.1443 9.06448 44.4497C9.32877 45.7551 9.98113 46.9541 10.9391 47.8953C11.897 48.8364 13.1175 49.4773 14.4461 49.737C15.7748 49.9966 17.1521 49.8634 18.4036 49.354C19.6552 48.8447 20.725 47.9822 21.4776 46.8755C22.2303 45.7688 22.632 44.4678 22.632 43.1368C22.632 41.352 21.9103 39.6404 20.6258 38.3784C19.3413 37.1163 17.599 36.4074 15.7824 36.4074ZM5.46074 43.1368C5.46076 41.1424 6.06216 39.1926 7.18904 37.5336C8.31592 35.8747 9.91777 34.5809 11.7924 33.8155C13.667 33.0502 15.7304 32.8476 17.7222 33.2333C19.7139 33.619 21.5447 34.5758 22.9834 35.9829C24.4222 37.3899 25.4044 39.1842 25.8062 41.1392C26.208 43.0942 26.0112 45.1223 25.2409 46.9676C24.4705 48.8128 23.161 50.3925 21.4776 51.5073C19.7942 52.622 17.8125 53.2218 15.7824 53.231C14.4292 53.2371 13.0881 52.9806 11.8361 52.476C10.5841 51.9715 9.44583 51.2289 8.48674 50.291C7.52766 49.353 6.76662 48.2382 6.24733 47.0105C5.72804 45.7827 5.46072 44.4663 5.46074 43.1368ZM8.88552 59.9605C7.52096 59.9605 6.2123 60.493 5.24741 61.441C4.28252 62.389 3.74046 63.6747 3.74046 65.0153C3.69953 65.4336 3.50144 65.822 3.18484 66.1046C2.86823 66.3872 2.45582 66.5437 2.02806 66.5437C1.60031 66.5437 1.1879 66.3872 0.871293 66.1046C0.554687 65.822 0.356598 65.4336 0.315674 65.0153C0.315674 62.7823 1.21857 60.6407 2.82572 59.0618C4.43288 57.4828 6.61266 56.5957 8.88552 56.5957H22.5846C24.8548 56.5998 27.0305 57.4887 28.6342 59.0672C30.238 60.6458 31.1387 62.785 31.1387 65.0153C31.0978 65.4336 30.8997 65.822 30.5831 66.1046C30.2665 66.3872 29.8541 66.5437 29.4263 66.5437C28.9986 66.5437 28.5862 66.3872 28.2695 66.1046C27.9529 65.822 27.7549 65.4336 27.7139 65.0153C27.716 64.3522 27.5849 63.6953 27.328 63.0821C27.0712 62.4689 26.6937 61.9115 26.2172 61.4419C25.7407 60.9723 25.1745 60.5998 24.5512 60.3455C23.9278 60.0913 23.2596 59.9605 22.5846 59.9605H8.88552Z" fill="#4AD1A0" stroke="#4AD1A0" stroke-width="0.4" stroke-miterlimit="10"/>
<path d="M71.7627 17.1338H64.7237C62.196 17.1338 60.1469 19.147 60.1469 21.6304V24.6075C60.1469 27.091 62.196 29.1042 64.7237 29.1042H71.7627C74.2904 29.1042 76.3396 27.091 76.3396 24.6075V21.6304C76.3396 19.147 74.2904 17.1338 71.7627 17.1338Z" fill="#A799F2"/>
<path d="M44.6642 33.6475H37.6252C35.0975 33.6475 33.0483 35.6607 33.0483 38.1441V41.1212C33.0483 43.6046 35.0975 45.6178 37.6252 45.6178H44.6642C47.1919 45.6178 49.2411 43.6046 49.2411 41.1212V38.1441C49.2411 35.6607 47.1919 33.6475 44.6642 33.6475Z" fill="#A799F2"/>
</g>
<defs>
<clipPath id="clip0">
<rect width="94" height="67" fill="white"/>
</clipPath>
</defs>
</svg>
