<svg width="13" height="11" viewBox="0 0 13 11" fill="none" xmlns="http://www.w3.org/2000/svg">
<path d="M6.73798 0.23013C7.05528 -0.0767101 7.56972 -0.0767101 7.88702 0.23013L12.762 4.94442C12.9144 5.09177 13 5.29162 13 5.5C13 5.70838 12.9144 5.90823 12.762 6.05558L7.88702 10.7699C7.56972 11.0767 7.05528 11.0767 6.73798 10.7699C6.42067 10.463 6.42067 9.96554 6.73798 9.6587L10.226 6.28572L0.8125 6.28572C0.363769 6.28572 0 5.93394 0 5.5C0 5.06606 0.363769 4.71429 0.8125 4.71429L10.226 4.71429L6.73798 1.3413C6.42067 1.03446 6.42067 0.536971 6.73798 0.23013Z" fill="white"/>
</svg>
