<svg width="99" height="76" viewBox="0 0 99 76" fill="none" xmlns="http://www.w3.org/2000/svg">
<path d="M95.6742 24.1997H29.7784C28.0425 24.1997 26.6353 25.6096 26.6353 27.3488V63.2271C26.6353 64.9663 28.0425 66.3763 29.7784 66.3763H95.6742C97.4101 66.3763 98.8173 64.9663 98.8173 63.2271V27.3488C98.8173 25.6096 97.4101 24.1997 95.6742 24.1997Z" fill="#5151E0"/>
<path d="M17.503 46.0137C17.9043 45.6147 18.4467 45.3909 19.012 45.3909C19.5773 45.3909 20.1197 45.6147 20.521 46.0137L33.2967 58.8296C33.5027 59.0338 33.6645 59.2782 33.7722 59.5478C33.8798 59.8173 33.9308 60.1062 33.9222 60.3963C33.929 60.6863 33.8771 60.9746 33.7696 61.2439C33.6621 61.5132 33.5012 61.7578 33.2967 61.9631L20.521 74.7633C20.1229 75.1643 19.582 75.3904 19.0175 75.3919C18.453 75.3933 17.911 75.1701 17.5108 74.7712C17.1106 74.3722 16.8849 73.8304 16.8835 73.2648C16.882 72.6992 17.1048 72.1562 17.503 71.7552L26.6508 62.5898H1.95945C1.42489 62.5439 0.926968 62.2987 0.564142 61.9027C0.201316 61.5067 0 60.9887 0 60.4512C0 59.9136 0.201316 59.3957 0.564142 58.9997C0.926968 58.6037 1.42489 58.3585 1.95945 58.3126H26.6508L17.503 49.0375C17.1048 48.6355 16.8813 48.092 16.8813 47.5256C16.8813 46.9592 17.1048 46.4158 17.503 46.0137Z" fill="#4AD1A0"/>
<path d="M39.755 51.1319C42.9763 51.1319 45.5877 48.5155 45.5877 45.288C45.5877 42.0605 42.9763 39.4441 39.755 39.4441C36.5336 39.4441 33.9222 42.0605 33.9222 45.288C33.9222 48.5155 36.5336 51.1319 39.755 51.1319Z" fill="#A799F2"/>
<path d="M85.4472 51.1319C88.6686 51.1319 91.28 48.5155 91.28 45.288C91.28 42.0605 88.6686 39.4441 85.4472 39.4441C82.2259 39.4441 79.6145 42.0605 79.6145 45.288C79.6145 48.5155 82.2259 51.1319 85.4472 51.1319Z" fill="#A799F2"/>
<path d="M62.6012 55.7696C68.3788 55.7696 73.0626 51.0769 73.0626 45.2881C73.0626 39.4994 68.3788 34.8066 62.6012 34.8066C56.8235 34.8066 52.1398 39.4994 52.1398 45.2881C52.1398 51.0769 56.8235 55.7696 62.6012 55.7696Z" fill="#A799F2"/>
<path d="M96.1903 21.0663L93.8291 11.8539C93.6973 11.3061 93.4584 10.7899 93.1262 10.3352C92.794 9.88052 92.3751 9.49635 91.8937 9.20494C91.4124 8.91353 90.8781 8.72066 90.3218 8.63749C89.7656 8.55432 89.1984 8.58251 88.6531 8.72042L40.5995 21.0663H96.1903Z" fill="#5151E0"/>
<path d="M85.4474 6.2135L82.5545 1.27828C82.3863 0.985918 82.1619 0.729863 81.8943 0.524913C81.6267 0.319962 81.3212 0.170182 80.9955 0.0842277C80.6698 -0.00172684 80.3303 -0.0221508 79.9967 0.0241373C79.6631 0.0704253 79.3419 0.182506 79.0517 0.353903L53.2657 15.4572L85.4474 6.2135Z" fill="#5151E0"/>
</svg>
