<svg width="36" height="41" viewBox="0 0 36 41" fill="none" xmlns="http://www.w3.org/2000/svg">
<path d="M22.6993 37.0043L17.7754 34.1646V41.0001L22.6993 38.1603C22.8007 38.1016 22.8848 38.0173 22.9433 37.9158C23.0018 37.8144 23.0326 37.6994 23.0326 37.5823C23.0326 37.4653 23.0018 37.3503 22.9433 37.2488C22.8848 37.1474 22.8007 37.0631 22.6993 37.0043Z" fill="#31319B"/>
<path d="M11.8516 37.5823L17.7756 41.0001V34.1646L11.8516 37.5823Z" fill="#3C3CAA"/>
<path d="M5.92407 34.1644L11.8515 37.5821V30.7466L5.92407 34.1644Z" fill="#4747C9"/>
<path d="M0 30.7467L5.92406 34.1645V27.3323L0 30.7467Z" fill="#565CD6"/>
<path d="M0 23.9144L5.92406 27.3321V20.4966L0 23.9144Z" fill="#4473B7"/>
<path d="M0 17.0823L5.92406 20.5001V13.6646L0 17.0823Z" fill="#209AB7"/>
<path d="M0 10.2501L5.92406 13.6645V6.83228L0 10.2501Z" fill="#4AD1A0"/>
<path d="M5.92407 6.83233L11.8515 10.2501V3.41455L5.92407 6.83233Z" fill="#3EAF6E"/>
<path d="M11.8481 3.41778L17.7756 6.83222V0L11.8481 3.41778Z" fill="#ABCC46"/>
<path d="M17.7722 6.83216L23.6963 10.2499V3.41772L17.7722 6.83216Z" fill="#E5AA33"/>
<path d="M23.6929 10.2435L29.6169 13.6612V6.82568L23.6929 10.2435Z" fill="#D65F2B"/>
<path d="M29.6169 13.6612L35.541 17.0756V10.2434L29.6169 13.6612Z" fill="#BF3030"/>
<path d="M29.6169 20.4866L35.541 23.9044V17.0688L29.6169 20.4866Z" fill="#AA3F91"/>
<path d="M17.7722 20.5035L23.6996 23.9179V17.0857L17.7722 20.5035Z" fill="#4542B7"/>
<path d="M29.6169 27.3121L35.541 30.7265V23.8943L29.6169 27.3121Z" fill="#AB46D1"/>
<path d="M24.6997 31.308L29.617 34.1445V27.3123L24.6997 30.1454C24.5968 30.2037 24.5112 30.2882 24.4516 30.3903C24.392 30.4924 24.3606 30.6085 24.3606 30.7267C24.3606 30.8449 24.392 30.961 24.4516 31.0631C24.5112 31.1652 24.5968 31.2497 24.6997 31.308Z" fill="#6D4499"/>
<path d="M17.7756 34.1644L11.8516 30.7466V37.5821L17.7756 34.1644Z" fill="#4542B7"/>
<path d="M11.8515 30.7467L5.92407 27.3323V34.1645L11.8515 30.7467Z" fill="#5151E0"/>
<path d="M5.92406 27.3321L0 23.9143V30.7465L5.92406 27.3321Z" fill="#596ED8"/>
<path d="M5.92406 20.5001L0 17.0823V23.9145L5.92406 20.5001Z" fill="#2380AF"/>
<path d="M17.7722 20.4967L11.8481 17.0823V23.9145L17.7722 20.4967Z" fill="#4747C9"/>
<path d="M17.7756 20.4999V13.6677L11.8516 17.0822L17.7756 20.4999Z" fill="#5151E0"/>
<path d="M17.7722 20.5V27.3322L23.6996 23.9178L17.7722 20.5Z" fill="#3C3CAA"/>
<path d="M17.7722 20.5033L23.6996 17.0855L17.7722 13.6677V20.5033Z" fill="#4747C9"/>
<path d="M17.7722 20.4966L11.8481 23.9144L17.7722 27.3321V20.4966Z" fill="#4542B7"/>
<path d="M11.8515 10.2501L5.92407 6.83228V13.6645L11.8515 10.2501Z" fill="#3FBB97"/>
<path d="M17.7756 6.83216L11.8481 3.41772V10.2499L17.7756 6.83216Z" fill="#62B758"/>
<path d="M23.6996 3.41778L17.7722 0V6.83222L23.6996 3.41778Z" fill="#EACE49"/>
<path d="M29.6169 6.82557L23.6929 3.41113V10.2434L29.6169 6.82557Z" fill="#E07E24"/>
<path d="M35.541 10.2435L29.6169 6.82568V13.6612L35.541 10.2435Z" fill="#D13D2A"/>
<path d="M35.541 17.0755L29.6169 13.6577V20.4933L35.541 17.0755Z" fill="#AF3869"/>
<path d="M35.541 23.8943L29.6169 20.4766V27.3121L35.541 23.8943Z" fill="#B240B2"/>
<path d="M35.541 30.7267L29.6169 27.3123V34.1445L35.541 30.7267Z" fill="#8A44B2"/>
<path d="M5.92406 13.6644L0 10.25V17.0822L5.92406 13.6644Z" fill="#25BECE"/>
</svg>
