<svg width="27" height="214" viewBox="0 0 27 214" fill="none" xmlns="http://www.w3.org/2000/svg">
<path d="M13 14L13 214" stroke="#E6E8EB" stroke-width="2"/>
<circle cx="13.5" cy="13.5" r="12.5" fill="white" stroke="#E6E8EB" stroke-width="2"/>
<path d="M13.968 20.18C16.794 20.18 18.36 18.29 18.36 16.112C18.36 14.042 16.902 12.17 14.22 12.17C13.392 12.17 12.618 12.422 11.934 12.962L12.474 9.452H17.658V7.832H11.16L10.08 14.618L11.556 15.086C12.06 14.204 12.87 13.754 13.95 13.754C15.57 13.754 16.47 14.852 16.47 16.112C16.47 17.498 15.642 18.542 13.968 18.542C12.618 18.542 11.628 17.768 11.502 16.472H9.684C9.774 18.632 11.592 20.18 13.968 20.18Z" fill="#081B33"/>
</svg>
