<svg width="42" height="221" viewBox="0 0 42 221" fill="none" xmlns="http://www.w3.org/2000/svg">
<path d="M21 21L21 221" stroke="#E6E8EB" stroke-width="2"/>
<circle cx="21" cy="21" r="20" fill="white" stroke="#E6E8EB" stroke-width="2"/>
<path d="M20.072 27.22C23.526 27.22 25.44 24.91 25.44 22.248C25.44 19.718 23.658 17.43 20.38 17.43C19.368 17.43 18.422 17.738 17.586 18.398L18.246 14.108H24.582V12.128H16.64L15.32 20.422L17.124 20.994C17.74 19.916 18.73 19.366 20.05 19.366C22.03 19.366 23.13 20.708 23.13 22.248C23.13 23.942 22.118 25.218 20.072 25.218C18.422 25.218 17.212 24.272 17.058 22.688H14.836C14.946 25.328 17.168 27.22 20.072 27.22Z" fill="#081B33"/>
</svg>
