<svg width="114" height="33" viewBox="0 0 114 33" fill="none" xmlns="http://www.w3.org/2000/svg">
<g clip-path="url(#clip0)">
<path d="M41.9197 20.867V12.3696H45.3246V27.1244H42.1658V25.2179C41.7817 25.9085 41.2 26.47 40.4944 26.8313C39.6167 27.2831 38.6371 27.5035 37.6493 27.4713C35.8931 27.4713 34.5409 26.9452 33.5925 25.8929C32.6441 24.8405 32.1745 23.4306 32.1835 21.663V12.3696H35.5857V21.2085C35.5857 23.4458 36.5485 24.5645 38.4741 24.5645C39.5415 24.5645 40.3808 24.2472 40.992 23.6125C41.6032 22.9779 41.9125 22.0628 41.9197 20.867Z" fill="white"/>
<path d="M50.4308 9.89299C50.1471 9.90373 49.8643 9.8576 49.5989 9.75735C49.3336 9.6571 49.0913 9.50479 48.8865 9.30947C48.6877 9.1158 48.5316 8.88308 48.4282 8.62613C48.3248 8.36917 48.2764 8.09363 48.2861 7.81705C48.2734 7.53366 48.3202 7.25076 48.4235 6.98634C48.5268 6.72192 48.6843 6.48178 48.8861 6.2812C49.0878 6.08061 49.3293 5.92399 49.5953 5.82128C49.8612 5.71857 50.1457 5.67204 50.4308 5.68463C50.7112 5.67589 50.9906 5.72434 51.2515 5.82701C51.5124 5.92968 51.7495 6.08439 51.948 6.2816C52.1481 6.48325 52.3047 6.72351 52.4079 6.98757C52.5112 7.25164 52.559 7.53392 52.5484 7.81705C52.558 8.09363 52.5096 8.36917 52.4062 8.62613C52.3029 8.88308 52.1468 9.1158 51.948 9.30947C51.7476 9.50324 51.5099 9.6548 51.2492 9.75506C50.9885 9.85533 50.7101 9.90225 50.4308 9.89299ZM48.7161 27.1217V12.3696H52.1184V27.1244L48.7161 27.1217Z" fill="white"/>
<path d="M66.1602 14.3004V5.79761H69.5625V27.1218H66.4172V25.0082C65.4057 26.6377 63.737 27.4525 61.4111 27.4525C59.2962 27.4525 57.6239 26.7184 56.3943 25.2502C55.1646 23.782 54.5498 21.9516 54.5498 19.7591C54.5498 17.5595 55.1646 15.7211 56.3943 14.2439C57.6239 12.7667 59.2962 12.0272 61.4111 12.0254C63.5621 12.0254 65.1451 12.7838 66.1602 14.3004ZM66.3009 19.7591C66.3009 18.3734 65.9249 17.2359 65.1731 16.3467C64.7883 15.9257 64.3192 15.5892 63.7959 15.359C63.2727 15.1287 62.7068 15.0098 62.1346 15.0098C61.5624 15.0098 60.9965 15.1287 60.4732 15.359C59.9499 15.5892 59.4809 15.9257 59.0961 16.3467C58.3334 17.2431 57.9521 18.3806 57.9521 19.7591C57.9111 20.9821 58.3175 22.1782 59.0961 23.1258C59.4797 23.5488 59.9485 23.8869 60.4719 24.1183C60.9953 24.3498 61.5617 24.4694 62.1346 24.4694C62.7074 24.4694 63.2739 24.3498 63.7973 24.1183C64.3207 23.8869 64.7894 23.5488 65.1731 23.1258C65.9436 22.1748 66.344 20.9797 66.3009 19.7591Z" fill="white"/>
<path d="M80.9997 12.2514V15.4083C80.7444 15.3716 80.4869 15.3527 80.2289 15.3519C77.6741 15.3519 76.3966 16.717 76.3966 19.4473V27.1218H72.9944V12.3697H76.1397V14.4134C76.9781 12.9523 78.4358 12.2227 80.5129 12.2245L80.9997 12.2514Z" fill="white"/>
<path d="M89.408 27.4632C87.12 27.4632 85.2656 26.7148 83.8448 25.2179C82.436 23.7503 81.6697 21.7874 81.7137 19.7591C81.6701 17.7271 82.4339 15.7599 83.8394 14.2842C85.2602 12.7783 87.1146 12.0254 89.4026 12.0254C91.6906 12.0254 93.554 12.7783 94.9928 14.2842C96.4003 15.7591 97.1661 17.7264 97.1239 19.7591C97.1679 21.7874 96.4016 23.7503 94.9928 25.2179C93.5774 26.7166 91.7158 27.465 89.408 27.4632ZM85.1187 19.7591C85.1187 21.1628 85.5234 22.3002 86.333 23.1715C86.7329 23.5847 87.2126 23.9133 87.7433 24.1378C88.274 24.3623 88.8448 24.4781 89.4215 24.4781C89.9983 24.4781 90.5691 24.3623 91.0998 24.1378C91.6304 23.9133 92.1101 23.5847 92.5101 23.1715C93.3214 22.3002 93.7262 21.1628 93.7244 19.7591C93.7226 18.3554 93.3178 17.2081 92.5101 16.3171C92.1101 15.9039 91.6304 15.5753 91.0998 15.3508C90.5691 15.1263 89.9983 15.0106 89.4215 15.0106C88.8448 15.0106 88.274 15.1263 87.7433 15.3508C87.2126 15.5753 86.7329 15.9039 86.333 16.3171C85.5216 17.1919 85.1169 18.3393 85.1187 19.7591Z" fill="white"/>
<path d="M106.287 27.4632C103.999 27.4632 102.145 26.7148 100.726 25.2179C99.3162 23.7511 98.5497 21.7876 98.5952 19.7591C98.5516 17.7261 99.3176 15.7583 100.726 14.2842C102.147 12.7783 104.001 12.0254 106.287 12.0254C108.573 12.0254 110.436 12.7783 111.877 14.2842C113.284 15.7591 114.05 17.7264 114.008 19.7591C114.052 21.7874 113.286 23.7503 111.877 25.2179C110.453 26.7166 108.589 27.465 106.287 27.4632ZM101.989 19.7591C101.989 21.1628 102.395 22.3002 103.206 23.1715C103.606 23.5846 104.085 23.9132 104.616 24.1377C105.146 24.3621 105.717 24.4778 106.294 24.4778C106.87 24.4778 107.441 24.3621 107.971 24.1377C108.502 23.9132 108.981 23.5846 109.381 23.1715C110.192 22.3002 110.598 21.1628 110.598 19.7591C110.598 18.3554 110.192 17.2081 109.381 16.3171C108.981 15.904 108.502 15.5754 107.971 15.3509C107.441 15.1265 106.87 15.0108 106.294 15.0108C105.717 15.0108 105.146 15.1265 104.616 15.3509C104.085 15.5754 103.606 15.904 103.206 16.3171C102.395 17.1919 101.989 18.3393 101.989 19.7591Z" fill="white"/>
<path d="M18.3527 29.7839L14.3717 27.4982V33L18.3527 30.7143C18.4347 30.667 18.5027 30.5991 18.55 30.5175C18.5973 30.4358 18.6222 30.3433 18.6222 30.2491C18.6222 30.1548 18.5973 30.0623 18.55 29.9806C18.5027 29.899 18.4347 29.8311 18.3527 29.7839Z" fill="#31319B"/>
<path d="M9.58203 30.2491L14.3717 33V27.4982L9.58203 30.2491Z" fill="#3C3CAA"/>
<path d="M4.78979 27.4982L9.58217 30.2491V24.7473L4.78979 27.4982Z" fill="#4747C9"/>
<path d="M0 24.7474L4.78967 27.4982V21.9991L0 24.7474Z" fill="#565CD6"/>
<path d="M0 19.2482L4.78967 21.9991V16.4973L0 19.2482Z" fill="#4473B7"/>
<path d="M0 13.7491L4.78967 16.5V10.9982L0 13.7491Z" fill="#209AB7"/>
<path d="M0 8.25004L4.78967 10.9982V5.49915L0 8.25004Z" fill="#4AD1A0"/>
<path d="M4.78979 5.49907L9.58217 8.24996V2.74817L4.78979 5.49907Z" fill="#3EAF6E"/>
<path d="M9.57935 2.7509L14.3717 5.4991V0L9.57935 2.7509Z" fill="#ABCC46"/>
<path d="M14.369 5.49906L19.1587 8.24996V2.75085L14.369 5.49906Z" fill="#E5AA33"/>
<path d="M19.156 8.24467L23.9457 10.9956V5.49377L19.156 8.24467Z" fill="#D65F2B"/>
<path d="M23.9457 10.9955L28.7353 13.7437V8.24463L23.9457 10.9955Z" fill="#BF3030"/>
<path d="M23.9457 16.4892L28.7353 19.2401V13.7383L23.9457 16.4892Z" fill="#AA3F91"/>
<path d="M14.369 16.5027L19.1614 19.2509V13.7518L14.369 16.5027Z" fill="#4542B7"/>
<path d="M23.9457 21.983L28.7353 24.7312V19.2321L23.9457 21.983Z" fill="#AB46D1"/>
<path d="M19.97 25.199L23.9456 27.482V21.9829L19.97 24.2632C19.8868 24.3101 19.8175 24.3782 19.7694 24.4604C19.7212 24.5425 19.6958 24.636 19.6958 24.7311C19.6958 24.8263 19.7212 24.9197 19.7694 25.0019C19.8175 25.0841 19.8868 25.1521 19.97 25.199Z" fill="#6D4499"/>
<path d="M14.3717 27.4982L9.58203 24.7473V30.2491L14.3717 27.4982Z" fill="#4542B7"/>
<path d="M9.58217 24.7474L4.78979 21.9991V27.4982L9.58217 24.7474Z" fill="#5151E0"/>
<path d="M4.78967 21.9991L0 19.2482V24.7473L4.78967 21.9991Z" fill="#596ED8"/>
<path d="M4.78967 16.5L0 13.7491V19.2482L4.78967 16.5Z" fill="#2380AF"/>
<path d="M14.369 16.4974L9.57935 13.7491V19.2482L14.369 16.4974Z" fill="#4747C9"/>
<path d="M14.3717 16.5V11.0009L9.58203 13.7491L14.3717 16.5Z" fill="#5151E0"/>
<path d="M14.369 16.5V21.9991L19.1614 19.2509L14.369 16.5Z" fill="#3C3CAA"/>
<path d="M14.369 16.5026L19.1614 13.7517L14.369 11.0009V16.5026Z" fill="#4747C9"/>
<path d="M14.369 16.4973L9.57935 19.2482L14.369 21.9991V16.4973Z" fill="#4542B7"/>
<path d="M9.58217 8.25004L4.78979 5.49915V10.9982L9.58217 8.25004Z" fill="#3FBB97"/>
<path d="M14.3717 5.49906L9.57935 2.75085V8.24996L14.3717 5.49906Z" fill="#62B758"/>
<path d="M19.1614 2.7509L14.369 0V5.4991L19.1614 2.7509Z" fill="#EACE49"/>
<path d="M23.9457 5.49369L19.156 2.74548V8.24459L23.9457 5.49369Z" fill="#E07E24"/>
<path d="M28.7353 8.24467L23.9457 5.49377V10.9956L28.7353 8.24467Z" fill="#D13D2A"/>
<path d="M28.7353 13.7437L23.9457 10.9928V16.4946L28.7353 13.7437Z" fill="#AF3869"/>
<path d="M28.7353 19.2321L23.9457 16.4812V21.983L28.7353 19.2321Z" fill="#B240B2"/>
<path d="M28.7353 24.7311L23.9457 21.9829V27.482L28.7353 24.7311Z" fill="#8A44B2"/>
<path d="M4.78967 10.9982L0 8.25V13.7491L4.78967 10.9982Z" fill="#25BECE"/>
</g>
<defs>
<clipPath id="clip0">
<rect width="114" height="33" fill="white"/>
</clipPath>
</defs>
</svg>
