<svg width="48" height="50" viewBox="0 0 48 50" fill="none" xmlns="http://www.w3.org/2000/svg">
<path d="M0 3.8C0 1.70132 1.7349 0 3.875 0H19.375C19.8889 0 20.3817 0.200178 20.745 0.556497L30.4325 10.0565C30.7959 10.4128 31 10.8961 31 11.4V34.2C31 36.2987 29.2651 38 27.125 38H3.875C1.7349 38 0 36.2987 0 34.2V3.8ZM26.3225 11.4L19.375 4.587V11.4H26.3225ZM15.5 3.8L3.875 3.8V34.2H27.125V15.2H17.4375C16.3674 15.2 15.5 14.3493 15.5 13.3V3.8ZM7.75 20.9C7.75 19.8507 8.61745 19 9.6875 19H21.3125C22.3826 19 23.25 19.8507 23.25 20.9C23.25 21.9493 22.3826 22.8 21.3125 22.8H9.6875C8.61745 22.8 7.75 21.9493 7.75 20.9ZM7.75 28.5C7.75 27.4507 8.61745 26.6 9.6875 26.6H21.3125C22.3826 26.6 23.25 27.4507 23.25 28.5C23.25 29.5493 22.3826 30.4 21.3125 30.4H9.6875C8.61745 30.4 7.75 29.5493 7.75 28.5Z" fill="#5151E0"/>
<path d="M47.4142 18.5858C48.1953 19.3668 48.1953 20.6332 47.4142 21.4142L39.4142 29.4142C38.6332 30.1953 37.3668 30.1953 36.5858 29.4142C35.8047 28.6332 35.8047 27.3668 36.5858 26.5858L41.1716 22L18 22C16.8954 22 16 21.1046 16 20C16 18.8954 16.8954 18 18 18L41.1716 18L36.5858 13.4142C35.8047 12.6332 35.8047 11.3668 36.5858 10.5858C37.3668 9.80474 38.6332 9.80474 39.4142 10.5858L47.4142 18.5858ZM22.8284 38L46 38C47.1046 38 48 38.8954 48 40C48 41.1046 47.1046 42 46 42L22.8284 42L27.4142 46.5858C28.1953 47.3668 28.1953 48.6332 27.4142 49.4142C26.6332 50.1953 25.3668 50.1953 24.5858 49.4142L16.5858 41.4142C16.2107 41.0391 16 40.5304 16 40C16 39.4696 16.2107 38.9609 16.5858 38.5858L24.5858 30.5858C25.3668 29.8047 26.6332 29.8047 27.4142 30.5858C28.1953 31.3668 28.1953 32.6332 27.4142 33.4142L22.8284 38Z" fill="#4AD1A0"/>
</svg>
