<svg width="69" height="52" viewBox="0 0 69 52" fill="none" xmlns="http://www.w3.org/2000/svg">
<path d="M32.5 3.8C28.2045 3.8 24.7222 7.20264 24.7222 11.4C24.7222 15.5974 28.2045 19 32.5 19C36.7955 19 40.2778 15.5974 40.2778 11.4C40.2778 7.20264 36.7955 3.8 32.5 3.8ZM20.8333 11.4C20.8333 5.10395 26.0567 0 32.5 0C38.9433 0 44.1667 5.10395 44.1667 11.4C44.1667 17.696 38.9433 22.8 32.5 22.8C26.0567 22.8 20.8333 17.696 20.8333 11.4ZM24.7222 30.4C21.5006 30.4 18.8889 32.952 18.8889 36.1C18.8889 37.1493 18.0183 38 16.9444 38C15.8706 38 15 37.1493 15 36.1C15 30.8533 19.3528 26.6 24.7222 26.6H40.2778C45.6472 26.6 50 30.8533 50 36.1C50 37.1493 49.1294 38 48.0556 38C46.9817 38 46.1111 37.1493 46.1111 36.1C46.1111 32.952 43.4994 30.4 40.2778 30.4H24.7222Z" fill="#5151E0"/>
<path d="M52.503 22.6228C52.9043 22.2239 53.4467 22 54.012 22C54.5773 22 55.1197 22.2239 55.521 22.6228L68.2967 35.4387C68.5027 35.6429 68.6645 35.8874 68.7722 36.1569C68.8798 36.4264 68.9308 36.7153 68.9222 37.0055C68.929 37.2954 68.8771 37.5837 68.7696 37.853C68.6621 38.1223 68.5012 38.367 68.2967 38.5722L55.521 51.3725C55.1229 51.7734 54.582 51.9995 54.0175 52.001C53.453 52.0025 52.911 51.7792 52.5108 51.3803C52.1106 50.9814 51.8849 50.4395 51.8835 49.8739C51.882 49.3083 52.1048 48.7653 52.503 48.3643L61.6508 39.1989H36.9595C36.4249 39.153 35.927 38.9078 35.5641 38.5119C35.2013 38.1159 35 37.5979 35 37.0603C35 36.5228 35.2013 36.0048 35.5641 35.6088C35.927 35.2128 36.4249 34.9676 36.9595 34.9217H61.6508L52.503 25.6466C52.1048 25.2446 51.8813 24.7011 51.8813 24.1347C51.8813 23.5683 52.1048 23.0249 52.503 22.6228Z" fill="#4AD1A0"/>
<path d="M8.5 2C9.2824 2 9.91667 2.64359 9.91667 3.4375V23.5625C9.91667 24.3564 9.2824 25 8.5 25C7.7176 25 7.08333 24.3564 7.08333 23.5625V3.4375C7.08333 2.64359 7.7176 2 8.5 2ZM15.5833 7.75C16.3657 7.75 17 8.39359 17 9.1875V23.5625C17 24.3564 16.3657 25 15.5833 25C14.8009 25 14.1667 24.3564 14.1667 23.5625V9.1875C14.1667 8.39359 14.8009 7.75 15.5833 7.75ZM1.41667 13.5C2.19907 13.5 2.83333 14.1436 2.83333 14.9375V23.5625C2.83333 24.3564 2.19907 25 1.41667 25C0.634263 25 0 24.3564 0 23.5625V14.9375C0 14.1436 0.634263 13.5 1.41667 13.5Z" fill="#5151E0"/>
</svg>
