<svg width="65" height="52" viewBox="0 0 65 52" fill="none" xmlns="http://www.w3.org/2000/svg">
<path d="M1.47101 27V20.7731H0V18.9076H1.47101V17.0924H0V15.2269H1.47101V9H5.4529L7.43116 15.2269H9.73913V9H12.5543V15.2269H14V17.0924H12.5543V18.9076H14V20.7731H12.5543V27H8.5471L6.51812 20.7731H4.28623V27H1.47101ZM4.18478 15.2269H4.89493L4.15942 12.8067H4.05797L4.18478 15.2269ZM4.28623 18.9076H5.96014L5.40217 17.0924H4.23551L4.28623 18.9076ZM8.62319 18.9076H9.78986L9.73913 17.0924H8.03986L8.62319 18.9076ZM9.81522 23.0672H9.94203L9.84058 20.7731H9.1558L9.81522 23.0672Z" fill="#5151E0"/>
<path d="M28.5 3.8C24.2045 3.8 20.7222 7.20264 20.7222 11.4C20.7222 15.5974 24.2045 19 28.5 19C32.7955 19 36.2778 15.5974 36.2778 11.4C36.2778 7.20264 32.7955 3.8 28.5 3.8ZM16.8333 11.4C16.8333 5.10395 22.0567 0 28.5 0C34.9433 0 40.1667 5.10395 40.1667 11.4C40.1667 17.696 34.9433 22.8 28.5 22.8C22.0567 22.8 16.8333 17.696 16.8333 11.4ZM20.7222 30.4C17.5006 30.4 14.8889 32.952 14.8889 36.1C14.8889 37.1493 14.0183 38 12.9444 38C11.8706 38 11 37.1493 11 36.1C11 30.8533 15.3528 26.6 20.7222 26.6H36.2778C41.6472 26.6 46 30.8533 46 36.1C46 37.1493 45.1294 38 44.0556 38C42.9817 38 42.1111 37.1493 42.1111 36.1C42.1111 32.952 39.4994 30.4 36.2778 30.4H20.7222Z" fill="#5151E0"/>
<path d="M48.503 22.6228C48.9043 22.2239 49.4467 22 50.012 22C50.5773 22 51.1197 22.2239 51.521 22.6228L64.2967 35.4387C64.5027 35.6429 64.6645 35.8874 64.7722 36.1569C64.8798 36.4264 64.9308 36.7153 64.9222 37.0055C64.929 37.2954 64.8771 37.5837 64.7696 37.853C64.6621 38.1223 64.5012 38.367 64.2967 38.5722L51.521 51.3725C51.1229 51.7734 50.582 51.9995 50.0175 52.001C49.453 52.0025 48.911 51.7792 48.5108 51.3803C48.1106 50.9814 47.8849 50.4395 47.8835 49.8739C47.882 49.3083 48.1048 48.7653 48.503 48.3643L57.6508 39.1989H32.9595C32.4249 39.153 31.927 38.9078 31.5641 38.5119C31.2013 38.1159 31 37.5979 31 37.0603C31 36.5228 31.2013 36.0048 31.5641 35.6088C31.927 35.2128 32.4249 34.9676 32.9595 34.9217H57.6508L48.503 25.6466C48.1048 25.2446 47.8813 24.7011 47.8813 24.1347C47.8813 23.5683 48.1048 23.0249 48.503 22.6228Z" fill="#4AD1A0"/>
</svg>
