<svg width="55" height="54" viewBox="0 0 55 54" fill="none" xmlns="http://www.w3.org/2000/svg">
<path fill-rule="evenodd" clip-rule="evenodd" d="M11.8515 3.41455V3.41586L17.7722 0.00192463V0L17.7739 0.000962316L17.7756 0V0.00192463L23.6929 3.41389V3.41113L29.6169 6.82557L23.6963 10.2414V10.2415L29.6169 6.82568V13.6612L23.6963 10.2454V10.2499L17.7739 6.83313L11.8515 10.248V10.2501V10.2501L11.8514 10.2501L5.92407 13.6645V6.83233V6.83228L5.92412 6.8323L11.8515 3.41455ZM5.92401 13.6645L5.92406 13.6645V13.6644V6.83228L4.87876e-05 10.25L0 10.25V10.2501V17.0822L5.92401 13.6645ZM4.79373e-05 17.0823L0 17.0823V17.0823V23.9143V23.9144V23.9145V30.7465L5.92401 27.3321L5.92406 27.3321V27.3321V20.5001V20.5001V20.4966V13.6646L4.79373e-05 17.0823ZM5.92406 34.1645L0 30.7467L5.92406 27.3323V34.1645ZM5.92418 34.1644L11.8515 37.5821L17.7755 34.1644L11.8515 30.7466H11.8514L11.8513 30.7466L5.92407 27.3323V34.1644V34.1645L5.92418 34.1644ZM17.7755 41.0001L11.8514 37.5823L17.7755 34.1646V41.0001ZM17.7755 34.1646L22.6994 37.0043C22.8008 37.0631 22.8849 37.1474 22.9434 37.2488C23.0019 37.3503 23.0327 37.4653 23.0327 37.5823C23.0327 37.6994 23.0019 37.8144 22.9434 37.9158C22.8849 38.0173 22.8008 38.1016 22.6994 38.1603L17.7755 41.0001V34.1646ZM29.6169 13.6612V20.4766V20.4866V20.4933V27.3121L35.541 30.7265V23.9044V23.8943V17.0756V17.0755V17.0688V10.2434L29.6169 6.82568V13.6577V13.6612ZM23.6996 23.9179L23.6995 23.9178L17.7722 27.3322V20.5035V20.5033V20.5V20.4981L17.7722 20.498V27.3321L11.8483 23.9144L11.8481 23.9145V23.9144V17.0823L15.4144 19.1377L11.8514 17.0822L17.7722 13.6696V13.6677L17.7739 13.6687L17.7755 13.6677V13.6696L23.6996 17.0855L17.7751 20.5016L17.7752 20.5017L23.6996 17.0857V23.9178V23.9179ZM29.617 34.1445L24.6997 31.308C24.5968 31.2497 24.5112 31.1652 24.4516 31.0631C24.392 30.961 24.3606 30.8449 24.3606 30.7267C24.3606 30.6085 24.392 30.4924 24.4516 30.3903C24.5112 30.2882 24.5968 30.2037 24.6997 30.1454L29.617 27.3123L35.541 30.7267L29.617 34.1445Z" fill="#5151E0"/>
<path d="M38.503 24.6228C38.9043 24.2239 39.4467 24 40.012 24C40.5773 24 41.1197 24.2239 41.521 24.6228L54.2967 37.4387C54.5027 37.6429 54.6645 37.8874 54.7722 38.1569C54.8798 38.4264 54.9308 38.7153 54.9222 39.0055C54.929 39.2954 54.8771 39.5837 54.7696 39.853C54.6621 40.1223 54.5012 40.367 54.2967 40.5722L41.521 53.3725C41.1229 53.7734 40.582 53.9995 40.0175 54.001C39.453 54.0025 38.911 53.7792 38.5108 53.3803C38.1106 52.9814 37.8849 52.4395 37.8835 51.8739C37.882 51.3083 38.1048 50.7653 38.503 50.3643L47.6508 41.1989H22.9595C22.4249 41.153 21.927 40.9078 21.5641 40.5119C21.2013 40.1159 21 39.5979 21 39.0603C21 38.5228 21.2013 38.0048 21.5641 37.6088C21.927 37.2128 22.4249 36.9676 22.9595 36.9217H47.6508L38.503 27.6466C38.1048 27.2446 37.8813 26.7011 37.8813 26.1347C37.8813 25.5683 38.1048 25.0249 38.503 24.6228Z" fill="#4AD1A0"/>
</svg>
