<svg width="51" height="50" viewBox="0 0 51 50" fill="none" xmlns="http://www.w3.org/2000/svg">
<path d="M0 3.8C0 1.70132 1.7349 0 3.875 0H19.375C19.8889 0 20.3817 0.200178 20.745 0.556497L30.4325 10.0565C30.7959 10.4128 31 10.8961 31 11.4V34.2C31 36.2987 29.2651 38 27.125 38H3.875C1.7349 38 0 36.2987 0 34.2V3.8ZM26.3225 11.4L19.375 4.587V11.4H26.3225ZM15.5 3.8L3.875 3.8V34.2H27.125V15.2H17.4375C16.3674 15.2 15.5 14.3493 15.5 13.3V3.8ZM7.75 20.9C7.75 19.8507 8.61745 19 9.6875 19H21.3125C22.3826 19 23.25 19.8507 23.25 20.9C23.25 21.9493 22.3826 22.8 21.3125 22.8H9.6875C8.61745 22.8 7.75 21.9493 7.75 20.9ZM7.75 28.5C7.75 27.4507 8.61745 26.6 9.6875 26.6H21.3125C22.3826 26.6 23.25 27.4507 23.25 28.5C23.25 29.5493 22.3826 30.4 21.3125 30.4H9.6875C8.61745 30.4 7.75 29.5493 7.75 28.5Z" fill="#5151E0"/>
<path d="M21.6228 32.4201C21.2239 32.0188 21 31.4764 21 30.9111C21 30.3458 21.2239 29.8034 21.6228 29.4021L34.4387 16.6264C34.6429 16.4204 34.8874 16.2585 35.1569 16.1509C35.4264 16.0433 35.7153 15.9923 36.0055 16.0009C36.2954 15.9941 36.5837 16.046 36.853 16.1535C37.1223 16.261 37.367 16.4219 37.5722 16.6264L50.3725 29.4021C50.7734 29.8002 50.9995 30.3411 51.001 30.9056C51.0025 31.4701 50.7792 32.0121 50.3803 32.4123C49.9814 32.8125 49.4395 33.0382 48.8739 33.0396C48.3083 33.0411 47.7653 32.8183 47.3643 32.4201L38.1989 23.2723L38.1989 47.9636C38.153 48.4982 37.9078 48.9961 37.5119 49.359C37.1159 49.7218 36.5979 49.9231 36.0603 49.9231C35.5228 49.9231 35.0048 49.7218 34.6088 49.359C34.2128 48.9961 33.9676 48.4982 33.9217 47.9636L33.9217 23.2723L24.6466 32.4201C24.2446 32.8183 23.7011 33.0418 23.1347 33.0418C22.5683 33.0418 22.0249 32.8183 21.6228 32.4201V32.4201Z" fill="#4AD1A0"/>
</svg>
