<svg width="51" height="44" viewBox="0 0 51 44" fill="none" xmlns="http://www.w3.org/2000/svg">
<path d="M0 3.9C0 1.74609 1.7349 0 3.875 0H19.375C19.8889 0 20.3817 0.205446 20.745 0.571142L30.4325 10.3211C30.7959 10.6868 31 11.1828 31 11.7V35.1C31 37.2539 29.2651 39 27.125 39H3.875C1.7349 39 0 37.2539 0 35.1V3.9ZM26.3225 11.7L19.375 4.70772V11.7H26.3225ZM15.5 3.9L3.875 3.9V35.1H27.125V15.6H17.4375C16.3674 15.6 15.5 14.727 15.5 13.65V3.9ZM7.75 21.45C7.75 20.373 8.61745 19.5 9.6875 19.5H21.3125C22.3826 19.5 23.25 20.373 23.25 21.45C23.25 22.527 22.3826 23.4 21.3125 23.4H9.6875C8.61745 23.4 7.75 22.527 7.75 21.45ZM7.75 29.25C7.75 28.173 8.61745 27.3 9.6875 27.3H21.3125C22.3826 27.3 23.25 28.173 23.25 29.25C23.25 30.327 22.3826 31.2 21.3125 31.2H9.6875C8.61745 31.2 7.75 30.327 7.75 29.25Z" fill="#5151E0"/>
<path d="M50.3287 16.5052C51.1543 17.239 51.2286 18.5032 50.4948 19.3287L29.1615 43.3287C28.782 43.7557 28.2379 44 27.6667 44C27.0954 44 26.5514 43.7557 26.1719 43.3287L15.5052 31.3287C14.7714 30.5032 14.8457 29.239 15.6713 28.5052C16.4969 27.7714 17.761 27.8457 18.4948 28.6713L27.6667 38.9896L47.5052 16.6713C48.239 15.8457 49.5031 15.7714 50.3287 16.5052Z" fill="#4AD1A0"/>
</svg>
