<svg width="22" height="22" viewBox="0 0 22 22" fill="none" xmlns="http://www.w3.org/2000/svg">
<path d="M6.39711 0C2.86949 0 0 2.81499 0 6.2733V15.2326C0 18.6901 2.87215 21.5024 6.40068 21.5024H15.542C19.0696 21.5024 21.9391 18.6875 21.9391 15.2291V6.2698C21.9391 2.81238 19.0669 0 15.5384 0H6.39711ZM17.3684 3.58374C17.873 3.58374 18.2826 3.98512 18.2826 4.47968C18.2826 4.97423 17.873 5.37561 17.3684 5.37561C16.8638 5.37561 16.4543 4.97423 16.4543 4.47968C16.4543 3.98512 16.8638 3.58374 17.3684 3.58374ZM10.9695 5.37561C13.9944 5.37561 16.4543 7.78657 16.4543 10.7512C16.4543 13.7159 13.9944 16.1268 10.9695 16.1268C7.94469 16.1268 5.48477 13.7159 5.48477 10.7512C5.48477 7.78657 7.94469 5.37561 10.9695 5.37561ZM10.9695 7.16748C9.99977 7.16748 9.06972 7.54505 8.384 8.21713C7.69827 8.88922 7.31303 9.80075 7.31303 10.7512C7.31303 11.7017 7.69827 12.6132 8.384 13.2853C9.06972 13.9574 9.99977 14.335 10.9695 14.335C11.9393 14.335 12.8694 13.9574 13.5551 13.2853C14.2408 12.6132 14.6261 11.7017 14.6261 10.7512C14.6261 9.80075 14.2408 8.88922 13.5551 8.21713C12.8694 7.54505 11.9393 7.16748 10.9695 7.16748Z" fill="#DADDE0"/>
</svg>
