<svg width="20" height="21" viewBox="0 0 20 21" fill="none" xmlns="http://www.w3.org/2000/svg">
<path d="M18.062 0.860352H2.26587C1.29616 0.860352 0.510742 1.66514 0.510742 2.65876V18.8444C0.510742 19.838 1.29616 20.6428 2.26587 20.6428H18.062C19.0317 20.6428 19.8171 19.838 19.8171 18.8444V2.65876C19.8171 1.66514 19.0317 0.860352 18.062 0.860352ZM6.61332 17.046H4.02451V8.51077H6.61332V17.046ZM5.29258 7.29055C4.45802 7.29055 3.78318 6.59726 3.78318 5.74392C3.78318 4.89058 4.4589 4.19819 5.29258 4.19819C6.12451 4.19819 6.80112 4.89148 6.80112 5.74392C6.80112 6.59726 6.12451 7.29055 5.29258 7.29055ZM16.3104 17.046H13.7233V12.8953C13.7233 11.9053 13.7058 10.632 12.378 10.632C11.031 10.632 10.8239 11.7101 10.8239 12.8233V17.046H8.23681V8.51077H10.7203V9.67703H10.7554C11.1012 9.00623 11.9454 8.29855 13.2047 8.29855C15.826 8.29855 16.3104 10.0664 16.3104 12.3647V17.046Z" fill="#DADDE0"/>
</svg>
