<svg width="25" height="18" viewBox="0 0 25 18" fill="none" xmlns="http://www.w3.org/2000/svg">
<path d="M12.5462 7.88125L23.6188 2.55549C23.6402 2.545 23.6593 2.53017 23.6747 2.51193C23.6901 2.49368 23.7016 2.47242 23.7084 2.44949C23.7153 2.42656 23.7173 2.40245 23.7144 2.37868C23.7115 2.35492 23.7038 2.33201 23.6917 2.31141C23.2908 1.60894 22.7126 1.0253 22.0156 0.619457C21.3186 0.213611 20.5275 -6.94049e-05 19.7221 4.93404e-07H4.57917C3.77338 -0.00037463 2.98177 0.213155 2.28433 0.61901C1.5869 1.02486 1.00835 1.60866 0.607164 2.31141C0.595216 2.33206 0.587612 2.35495 0.58482 2.37867C0.582029 2.4024 0.584111 2.42645 0.590937 2.44933C0.597763 2.47221 0.609188 2.49344 0.624504 2.5117C0.63982 2.52996 0.658701 2.54486 0.679978 2.55549L11.7538 7.88125C11.8775 7.94089 12.0129 7.97186 12.15 7.97186C12.2872 7.97186 12.4226 7.94089 12.5462 7.88125Z" fill="#DADDE0"/>
<path d="M12.601 10.1402C12.4598 10.2061 12.3059 10.2402 12.1502 10.2402C11.9945 10.2402 11.8406 10.2061 11.6994 10.1402L0.0830966 4.55204C0.0745045 4.54626 0.0644277 4.54311 0.0540896 4.54297C0.0437515 4.54284 0.0335968 4.54572 0.0248584 4.55128C0.01612 4.55684 0.00917375 4.56483 0.00486293 4.57428C0.000552106 4.58373 -0.000937837 4.59423 0.000573991 4.60452V13.3913C0.00057397 13.9959 0.119017 14.5946 0.349137 15.1532C0.579258 15.7118 0.916549 16.2193 1.34174 16.6467C1.76694 17.0742 2.27171 17.4133 2.82723 17.6445C3.38275 17.8758 3.97813 17.9947 4.57937 17.9946H19.7223C20.9363 17.9946 22.1006 17.5096 22.9591 16.6463C23.8176 15.783 24.2998 14.6122 24.2998 13.3913V4.78513C24.2996 4.75638 24.2922 4.72814 24.2784 4.70299C24.2645 4.67784 24.2446 4.65658 24.2205 4.64117C24.1963 4.62575 24.1687 4.61667 24.1402 4.61474C24.1117 4.61282 24.0831 4.61811 24.0571 4.63015L12.601 10.1402Z" fill="#DADDE0"/>
</svg>
