<svg width="42" height="42" viewBox="0 0 42 42" fill="none" xmlns="http://www.w3.org/2000/svg">
<circle cx="21" cy="21" r="20" fill="white" stroke="#E6E8EB" stroke-width="2"/>
<path d="M21.138 29.198C24.328 29.198 26.594 26.998 26.594 24.182C26.594 21.3 24.482 19.342 21.578 19.342C21.182 19.342 20.742 19.43 20.302 19.584L24.68 14.128H22.15L17.662 19.672C16.386 21.212 15.704 22.4 15.704 24.292C15.704 26.998 17.992 29.198 21.138 29.198ZM21.16 27.328C19.422 27.328 18.036 26.096 18.036 24.226C18.036 22.158 19.422 21.102 21.16 21.102C22.92 21.102 24.284 22.29 24.284 24.248C24.284 26.096 22.92 27.328 21.16 27.328Z" fill="#081B33"/>
</svg>
