<svg width="27" height="27" viewBox="0 0 27 27" fill="none" xmlns="http://www.w3.org/2000/svg">
<circle cx="13.5" cy="13.5" r="12.5" fill="white" stroke="#E6E8EB" stroke-width="2"/>
<path d="M13.022 20.162C15.632 20.162 17.486 18.362 17.486 16.058C17.486 13.7 15.758 12.098 13.382 12.098C13.058 12.098 12.698 12.17 12.338 12.296L15.92 7.832H13.85L10.178 12.368C9.134 13.628 8.576 14.6 8.576 16.148C8.576 18.362 10.448 20.162 13.022 20.162ZM13.04 18.632C11.618 18.632 10.484 17.624 10.484 16.094C10.484 14.402 11.618 13.538 13.04 13.538C14.48 13.538 15.596 14.51 15.596 16.112C15.596 17.624 14.48 18.632 13.04 18.632Z" fill="#081B33"/>
</svg>
