<svg width="27" height="214" viewBox="0 0 27 214" fill="none" xmlns="http://www.w3.org/2000/svg">
<path d="M13 14L13 214" stroke="#E6E8EB" stroke-width="2"/>
<circle cx="13.5" cy="13.5" r="12.5" fill="white" stroke="#E6E8EB" stroke-width="2"/>
<path d="M13.112 20.162C15.704 20.162 17.468 18.686 17.468 16.526C17.468 15.122 16.55 14.078 14.948 13.646C16.208 13.052 16.91 12.098 16.91 10.91C16.91 9.002 15.398 7.652 13.058 7.652C10.844 7.652 9.152 9.146 9.098 11.144H10.862C10.916 9.902 11.744 9.11 12.986 9.11C14.21 9.11 15.02 9.884 15.02 11.036C15.02 12.224 14.12 13.016 12.752 13.016H11.582V14.474H12.842C14.516 14.474 15.578 15.284 15.578 16.562C15.578 17.876 14.642 18.704 13.112 18.704C11.636 18.704 10.664 17.858 10.592 16.544H8.81C8.828 18.686 10.592 20.162 13.112 20.162Z" fill="#081B33"/>
</svg>
