<svg width="42" height="42" viewBox="0 0 42 42" fill="none" xmlns="http://www.w3.org/2000/svg">
<circle cx="21" cy="21" r="20" fill="white" stroke="#E6E8EB" stroke-width="2"/>
<path d="M21.248 29.198C24.416 29.198 26.572 27.394 26.572 24.754C26.572 23.038 25.45 21.762 23.492 21.234C25.032 20.508 25.89 19.342 25.89 17.89C25.89 15.558 24.042 13.908 21.182 13.908C18.476 13.908 16.408 15.734 16.342 18.176H18.498C18.564 16.658 19.576 15.69 21.094 15.69C22.59 15.69 23.58 16.636 23.58 18.044C23.58 19.496 22.48 20.464 20.808 20.464H19.378V22.246H20.918C22.964 22.246 24.262 23.236 24.262 24.798C24.262 26.404 23.118 27.416 21.248 27.416C19.444 27.416 18.256 26.382 18.168 24.776H15.99C16.012 27.394 18.168 29.198 21.248 29.198Z" fill="#081B33"/>
</svg>
