<svg width="119" height="89" viewBox="0 0 119 89" fill="none" xmlns="http://www.w3.org/2000/svg">
<path d="M64.7486 75.5925C76.6022 68.49 80.4462 53.1106 73.3345 41.2418C66.2228 29.3729 50.8485 25.5091 38.9949 32.6116C27.1413 39.7142 23.2973 55.0935 30.409 66.9624C37.5207 78.8312 52.895 82.695 64.7486 75.5925Z" fill="#5151E0"/>
<path d="M96.7357 56.4265C108.589 49.3239 112.433 33.9446 105.322 22.0758C98.2099 10.2069 82.8355 6.34308 70.9819 13.4456C59.1284 20.5482 55.2843 35.9275 62.396 47.7963C69.5077 59.6652 84.8821 63.529 96.7357 56.4265Z" fill="#5151E0"/>
<path d="M62.396 47.796C65.5555 53.0568 70.5427 56.9682 76.402 58.7806C77.5672 52.7463 76.4636 46.4915 73.3029 41.2166C70.1423 35.9418 65.1474 32.0186 59.2768 30.2001C58.1022 36.247 59.2137 42.5175 62.396 47.796Z" fill="#A799F2"/>
<path d="M26.9803 63.9298C26.9803 65.1693 26.6132 66.3809 25.9255 67.4115C25.2377 68.4421 24.2602 69.2453 23.1166 69.7197C21.9729 70.194 20.7145 70.3181 19.5004 70.0763C18.2863 69.8345 17.171 69.2376 16.2957 68.3612C15.4204 67.4847 14.8243 66.3681 14.5828 65.1524C14.3413 63.9367 14.4652 62.6767 14.939 61.5315C15.4127 60.3864 16.2149 59.4076 17.2442 58.719C18.2734 58.0304 19.4835 57.6628 20.7214 57.6628C22.3814 57.6628 23.9733 58.3231 25.1471 59.4984C26.3209 60.6737 26.9803 62.2677 26.9803 63.9298Z" fill="#4AD1A0"/>
<path d="M41.2819 63.0212C36.8068 54.0595 28.858 49.4062 20.7528 49.4062C12.6475 49.4062 4.69873 54.0595 0.22363 63.0212C0.076634 63.3099 0 63.6293 0 63.9534C0 64.2774 0.076634 64.5969 0.22363 64.8856C4.69873 73.8473 12.6475 78.5005 20.7528 78.5005C28.858 78.5005 36.8068 73.8003 41.2819 64.8856C41.4289 64.5969 41.5055 64.2774 41.5055 63.9534C41.5055 63.6293 41.4289 63.3099 41.2819 63.0212ZM20.7528 74.333C14.5878 74.333 8.235 70.9645 4.41708 63.9456C8.29759 56.9266 14.5878 53.5581 20.7528 53.5581C26.9178 53.5581 33.2705 56.9266 37.0884 63.9456C33.2079 70.9645 26.9178 74.333 20.7528 74.333Z" fill="#4AD1A0"/>
</svg>
