<svg width="24" height="20" viewBox="0 0 24 20" fill="none" xmlns="http://www.w3.org/2000/svg">
<path d="M23.9608 2.81984C23.0887 3.20045 22.1519 3.45658 21.1686 3.5721C22.1729 2.98104 22.9429 2.04519 23.3056 0.929342C22.367 1.47652 21.3263 1.87414 20.2182 2.08908C19.3315 1.16039 18.0685 0.580078 16.6706 0.580078C13.9859 0.580078 11.8098 2.71954 11.8098 5.35693C11.8098 5.73127 11.8535 6.09665 11.9355 6.44502C7.89584 6.24621 4.31451 4.34406 1.91602 1.45324C1.49865 2.15893 1.25899 2.97925 1.25899 3.85599C1.25899 5.51275 2.1165 6.97518 3.42054 7.83133C2.62408 7.80625 1.8741 7.59132 1.21889 7.234C1.21889 7.25459 1.21889 7.2734 1.21889 7.294C1.21889 9.60899 2.89382 11.5398 5.11826 11.9777C4.71092 12.087 4.28079 12.1452 3.837 12.1452C3.52443 12.1452 3.21915 12.1147 2.92298 12.0601C3.54174 13.9578 5.33697 15.3396 7.4639 15.3781C5.80081 16.6596 3.70486 17.4235 1.42666 17.4235C1.03481 17.4235 0.647517 17.4012 0.266602 17.3564C2.41814 18.7113 4.97245 19.5021 7.71814 19.5021C16.6596 19.5021 21.5477 12.2231 21.5477 5.91038C21.5477 5.70351 21.5432 5.49753 21.5341 5.29245C22.4845 4.6181 23.3092 3.77718 23.9608 2.81984Z" fill="#DADDE0"/>
</svg>
